<svg id="Layer_1" enable-background="new 0 0 512 512" height="512" viewBox="0 0 512 512" width="512" xmlns="http://www.w3.org/2000/svg"><g><g><path d="m256 512c-141.159 0-256-114.841-256-256s114.841-256 256-256 256 114.841 256 256-114.841 256-256 256z" fill="#fdbf00"/></g><path d="m256 0v512c141.159 0 256-114.841 256-256s-114.841-256-256-256z" fill="#ff9100"/><g><path d="m317 436.99-129.96-.171c-3.979-.005-7.792-1.591-10.601-4.407l-97.06-97.315c-2.809-2.816-4.384-6.635-4.379-10.612l.181-137.444c.005-3.979 1.591-7.792 4.407-10.601l97.316-97.06c2.812-2.805 6.622-4.38 10.592-4.38h.021l129.483.17 30 15.887 30 30.079 17.191 38.544 12.809-8.464 25.62 25.688c2.81 2.816 4.385 6.634 4.38 10.612l-.181 137.444c-.005 3.979-1.591 7.792-4.407 10.601l-25.412 25.345-15-6.842-15 36.763-30 29.921z" fill="#ffde46"/></g><path d="m432.62 176.903-25.62-25.687-12.809 8.465-17.191-38.544-30-30.079-30-15.888-61-.08v361.82l61 .08 30-16.242 30-29.921 15-36.763 15 6.842 25.412-25.345c2.816-2.809 4.402-6.622 4.407-10.601l.181-137.444c.005-3.979-1.57-7.796-4.38-10.613z" fill="#ffcd00"/><g fill="#fdbf00"><path d="m377 390.827 30-29.921v-209.69l-30-30.079z"/><path d="m347 420.748v-329.691l-11.439-11.47c-2.809-2.816-6.622-4.402-10.601-4.407l-7.96-.01v361.82l7.484.01h.021c3.971 0 7.78-1.575 10.592-4.38z"/></g></g></svg>